<svg width="70" height="93" viewBox="0 0 70 93" fill="none" xmlns="http://www.w3.org/2000/svg">
<path d="M32.1667 92.2408C49.514 92.2408 63.6481 79.8744 63.6481 64.5371C63.6481 49.1997 49.514 36.8333 32.1667 36.8333C14.8194 36.8333 0.685185 49.1997 0.685185 64.5371C0.685185 79.8744 14.8194 92.2408 32.1667 92.2408Z" stroke="black" stroke-width="0.62963"/>
<mask id="path-2-outside-1_101_101" maskUnits="userSpaceOnUse" x="16.1852" y="35.5185" width="54" height="57" fill="black">
<rect fill="white" x="16.1852" y="35.5185" width="54" height="57"/>
<path d="M29.6216 37.9281C34.6948 36.377 40.1294 36.1002 45.3592 37.1265C50.5889 38.1528 55.4225 40.4447 59.3562 43.7634C63.2899 47.0821 66.1799 51.3061 67.7249 55.9954C69.27 60.6847 69.4136 65.6676 68.1409 70.425C66.8681 75.1824 64.2256 79.5401 60.4885 83.0443C56.7515 86.5484 52.0567 89.0706 46.8934 90.3482C41.73 91.6258 36.287 91.6119 31.1315 90.3081C25.976 89.0043 21.2966 86.4582 17.5809 82.9351L39.0926 63.9074L29.6216 37.9281Z"/>
</mask>
<path d="M29.6216 37.9281C34.6948 36.377 40.1294 36.1002 45.3592 37.1265C50.5889 38.1528 55.4225 40.4447 59.3562 43.7634C63.2899 47.0821 66.1799 51.3061 67.7249 55.9954C69.27 60.6847 69.4136 65.6676 68.1409 70.425C66.8681 75.1824 64.2256 79.5401 60.4885 83.0443C56.7515 86.5484 52.0567 89.0706 46.8934 90.3482C41.73 91.6258 36.287 91.6119 31.1315 90.3081C25.976 89.0043 21.2966 86.4582 17.5809 82.9351L39.0926 63.9074L29.6216 37.9281Z" stroke="black" stroke-width="1.25926" mask="url(#path-2-outside-1_101_101)"/>
<path d="M29.6216 37.9281C34.6948 36.377 40.1294 36.1002 45.3592 37.1265C50.5889 38.1528 55.4225 40.4447 59.3562 43.7634C63.2899 47.0821 66.1799 51.3061 67.7249 55.9954C69.27 60.6847 69.4136 65.6676 68.1409 70.425C66.8681 75.1824 64.2256 79.5401 60.4885 83.0443C56.7515 86.5484 52.0567 89.0706 46.8934 90.3482C41.73 91.6258 36.287 91.6119 31.1315 90.3081C25.976 89.0043 21.2966 86.4582 17.5809 82.9351L39.0926 63.9074L29.6216 37.9281Z" fill="#CB2222"/>
<ellipse cx="32.1667" cy="64.537" rx="31.1667" ry="27.3889" fill="#CB2222"/>
<path d="M36.4995 70.2462C25.1438 69.5564 50.9689 41.5717 19.0912 49.1536C6.02826 52.2605 6.62844 59.5424 5.01798 68.6721C2.07474 85.3572 26.9679 90.9739 36.4995 88.1906C52.6487 83.4749 47.8551 70.9359 36.4995 70.2462Z" fill="#CD2B2B" stroke="#CB2222" stroke-width="0.62963"/>
<path d="M26.5634 20.0152C27.3276 15.8972 33.2279 15.8972 33.9921 20.0152L36.81 35.1996C37.2411 37.5225 35.4582 39.6667 33.0956 39.6667H27.4599C25.0973 39.6667 23.3145 37.5225 23.7455 35.1996L26.5634 20.0152Z" fill="#1A700D"/>
<path d="M37.4936 35.3345C35.4111 34.6535 32.557 34.6015 29.2921 35.1852C26.0273 35.7688 22.4983 36.9619 19.1514 38.6134C15.8046 40.265 12.7902 42.3009 10.4895 44.4638C8.18884 46.6266 6.70512 48.8191 6.22602 50.7642L23.5388 45.7992L37.4936 35.3345Z" fill="#1A700D"/>
<path d="M45.8146 57.4133C47.5019 55.5394 48.2279 52.917 47.8561 50.0394C47.4843 47.1618 46.0403 44.2274 43.7957 41.7883C41.5512 39.3492 38.6608 37.5736 35.6685 36.7955C32.6762 36.0173 29.7881 36.2903 27.5477 37.5632L35.6814 48.2893L45.8146 57.4133Z" fill="#1A700D"/>
<path d="M55.1482 41.8704C55.1482 39.7974 53.577 37.7959 50.7303 36.2424C47.8836 34.6889 43.9575 33.6906 39.6908 33.4351C35.4241 33.1797 31.1109 33.6848 27.5627 34.8555C24.0144 36.0261 21.4757 37.7816 20.4242 39.7916L37.5185 41.8704H55.1482Z" fill="#1A700D"/>
<path d="M37.6376 37.4078C36.7375 36.4025 35.6236 35.6691 34.3594 35.2494C33.0952 34.8297 31.7055 34.732 30.2696 34.9617C28.8338 35.1914 27.3799 35.7442 25.991 36.5884C24.6021 37.4326 23.3054 38.5517 22.1748 39.8819C21.0443 41.212 20.1022 42.7271 19.4022 44.3407C18.7022 45.9543 18.258 47.6348 18.0951 49.2861C17.9322 50.9375 18.0536 52.5275 18.4526 53.9652C18.8515 55.403 19.5201 56.6603 20.4202 57.6656L29.0289 47.5367L37.6376 37.4078Z" fill="#1A700D"/>
<path d="M27.1296 17.9444C24.8169 24.9133 23.9466 28.8403 23.3519 35.8889C13.7576 40.1836 9.85345 43.3001 6.03705 50.3704L18.6296 47.2222C18.3196 56.0493 19.2225 56.9257 21.1481 57.2963L32.1667 43.7593L45.3889 57.2963C49.5209 51.8793 46.6481 42.1852 43.1852 42.1852H55.463C52.995 35.5211 49.4894 33.0604 35.9444 33.0556C35.7406 29.3912 35.1704 25.6871 33.7407 17.9444C31.159 16.0663 29.7114 16.5416 27.1296 17.9444Z" stroke="black" stroke-width="0.62963"/>
<line x1="2.88879" y1="66.3465" x2="66.482" y2="66.3465" stroke="black" stroke-width="0.62963"/>
<path d="M34.3703 64.8519L31.644 60.1296H37.0967L34.3703 64.8519Z" fill="black"/>
<line x1="17.6852" y1="61.7037" x2="17.6852" y2="64.8519" stroke="black" stroke-width="0.62963"/>
<line x1="10.7593" y1="61.7037" x2="10.7593" y2="64.8519" stroke="black" stroke-width="0.62963"/>
<line x1="24.6111" y1="61.7037" x2="24.6111" y2="64.8519" stroke="black" stroke-width="0.62963"/>
<line x1="44.7593" y1="61.7037" x2="44.7593" y2="64.8519" stroke="black" stroke-width="0.62963"/>
<line x1="51.6852" y1="61.7037" x2="51.6852" y2="64.8519" stroke="black" stroke-width="0.62963"/>
<line x1="58.6111" y1="61.7037" x2="58.6111" y2="64.8519" stroke="black" stroke-width="0.62963"/>
</svg>
